<svg xmlns="http://www.w3.org/2000/svg" xmlns:xlink="http://www.w3.org/1999/xlink" width="500" zoomAndPan="magnify" viewBox="0 0 375 374.999991" height="500" preserveAspectRatio="xMidYMid meet" version="1.0"><defs><g/><clipPath id="2f53daf4eb"><path d="M 30.214844 46.269531 L 344.464844 46.269531 L 344.464844 253 L 30.214844 253 Z M 30.214844 46.269531 " clip-rule="nonzero"/></clipPath></defs><rect x="-37.5" width="450" fill="#ffffff" y="-37.499999" height="449.999989" fill-opacity="1"/><rect x="-37.5" width="450" fill="#ffffff" y="-37.499999" height="449.999989" fill-opacity="1"/><g clip-path="url(#2f53daf4eb)"><path fill="#000000" d="M 120.289062 195.988281 C 107.777344 195.988281 96.410156 193.875 86.171875 189.640625 C 82.570312 188.148438 79.164062 186.464844 75.945312 184.582031 C 78.648438 189.53125 81.921875 194.007812 85.71875 197.957031 C 91.453125 203.914062 98.625 208.695312 107.019531 212.171875 C 115.375 215.625 124.890625 217.40625 135.3125 217.460938 L 194.65625 217.460938 L 185.242188 195.988281 Z M 304.757812 46.273438 L 281.769531 46.273438 L 260.464844 96.5625 L 271.539062 122.335938 Z M 30.207031 149.871094 C 30.207031 135.304688 32.769531 121.679688 37.875 108.988281 C 42.984375 96.300781 50.21875 85.328125 59.582031 76.078125 C 68.953125 66.832031 80.113281 59.554688 93.070312 54.242188 C 103.714844 49.878906 115.222656 47.308594 127.589844 46.53125 C 130.28125 46.355469 133.011719 46.273438 135.78125 46.273438 L 166.828125 46.273438 L 244.027344 225.929688 L 321.796875 46.273438 L 344.785156 46.273438 L 254.246094 252.871094 L 233.242188 252.871094 L 152.109375 67.742188 L 135.808594 67.742188 C 123.296875 67.742188 111.925781 69.808594 101.691406 73.945312 C 91.453125 78.078125 82.785156 83.839844 75.675781 91.226562 C 68.566406 98.609375 63.066406 107.230469 59.179688 117.074219 C 55.292969 126.917969 53.351562 137.652344 53.351562 149.277344 C 53.351562 160.699219 55.292969 171.429688 59.179688 181.476562 C 63.066406 191.519531 68.566406 200.234375 75.675781 207.621094 C 82.785156 215.007812 91.453125 220.816406 101.691406 225.050781 C 111.925781 229.285156 123.296875 231.402344 135.808594 231.402344 L 200.761719 231.402344 L 210.171875 252.871094 L 135.78125 252.871094 C 120.269531 252.871094 106.035156 250.261719 93.070312 245.046875 C 80.113281 239.835938 68.953125 232.601562 59.582031 223.355469 C 50.21875 214.109375 42.984375 203.1875 37.875 190.597656 C 32.769531 178 30.207031 164.429688 30.207031 149.871094 " fill-opacity="1" fill-rule="nonzero"/></g><g fill="#000000" fill-opacity="1"><g transform="translate(42.687856, 318.636926)"><g><path d="M 24.34375 0.5625 C 21.332031 0.5625 18.519531 0 15.90625 -1.125 C 13.300781 -2.257812 11 -3.828125 9 -5.828125 C 7 -7.828125 5.429688 -10.128906 4.296875 -12.734375 C 3.171875 -15.347656 2.609375 -18.160156 2.609375 -21.171875 C 2.609375 -24.179688 3.171875 -26.988281 4.296875 -29.59375 C 5.429688 -32.207031 7 -34.515625 9 -36.515625 C 11 -38.515625 13.300781 -40.078125 15.90625 -41.203125 C 18.519531 -42.335938 21.332031 -42.90625 24.34375 -42.90625 C 28.53125 -42.90625 32.335938 -41.832031 35.765625 -39.6875 C 39.203125 -37.550781 41.816406 -34.742188 43.609375 -31.265625 L 35.5625 -27.09375 C 34.53125 -29.113281 33.023438 -30.734375 31.046875 -31.953125 C 29.066406 -33.179688 26.832031 -33.796875 24.34375 -33.796875 C 21.988281 -33.796875 19.859375 -33.242188 17.953125 -32.140625 C 16.046875 -31.035156 14.539062 -29.53125 13.4375 -27.625 C 12.332031 -25.71875 11.78125 -23.566406 11.78125 -21.171875 C 11.78125 -18.773438 12.332031 -16.625 13.4375 -14.71875 C 14.539062 -12.8125 16.046875 -11.300781 17.953125 -10.1875 C 19.859375 -9.082031 21.988281 -8.53125 24.34375 -8.53125 C 26.832031 -8.53125 29.066406 -9.140625 31.046875 -10.359375 C 33.023438 -11.585938 34.53125 -13.21875 35.5625 -15.25 L 43.609375 -11.078125 C 41.816406 -7.640625 39.203125 -4.835938 35.765625 -2.671875 C 32.335938 -0.515625 28.53125 0.5625 24.34375 0.5625 Z M 24.34375 0.5625 "/></g></g></g><g fill="#000000" fill-opacity="1"><g transform="translate(99.807102, 318.636926)"><g><path d="M 29.640625 -42.34375 L 40.015625 -42.34375 L 24.765625 0 L 14.328125 0 L -0.921875 -42.34375 L 9.453125 -42.34375 L 19.546875 -12.0625 Z M 29.640625 -42.34375 "/></g></g></g><g fill="#000000" fill-opacity="1"><g transform="translate(150.577185, 318.636926)"><g/></g></g><g fill="#000000" fill-opacity="1"><g transform="translate(179.195801, 318.636926)"><g><path d="M 24.34375 -23.21875 L 46.15625 -23.21875 L 46.15625 -21.171875 C 46.15625 -18.160156 45.585938 -15.347656 44.453125 -12.734375 C 43.328125 -10.128906 41.765625 -7.828125 39.765625 -5.828125 C 37.765625 -3.828125 35.457031 -2.257812 32.84375 -1.125 C 30.238281 0 27.429688 0.5625 24.421875 0.5625 C 21.410156 0.5625 18.585938 0 15.953125 -1.125 C 13.316406 -2.257812 11.007812 -3.828125 9.03125 -5.828125 C 7.050781 -7.828125 5.5 -10.128906 4.375 -12.734375 C 3.25 -15.347656 2.6875 -18.160156 2.6875 -21.171875 C 2.6875 -24.179688 3.25 -26.988281 4.375 -29.59375 C 5.5 -32.207031 7.050781 -34.515625 9.03125 -36.515625 C 11.007812 -38.515625 13.316406 -40.078125 15.953125 -41.203125 C 18.585938 -42.335938 21.410156 -42.90625 24.421875 -42.90625 C 28.609375 -42.90625 32.40625 -41.832031 35.8125 -39.6875 C 39.21875 -37.550781 41.84375 -34.742188 43.6875 -31.265625 L 35.640625 -27.09375 C 34.597656 -29.113281 33.085938 -30.734375 31.109375 -31.953125 C 29.140625 -33.179688 26.910156 -33.796875 24.421875 -33.796875 C 22.066406 -33.796875 19.921875 -33.242188 17.984375 -32.140625 C 16.054688 -31.035156 14.539062 -29.53125 13.4375 -27.625 C 12.332031 -25.71875 11.78125 -23.566406 11.78125 -21.171875 C 11.78125 -18.773438 12.332031 -16.625 13.4375 -14.71875 C 14.539062 -12.8125 16.054688 -11.300781 17.984375 -10.1875 C 19.921875 -9.082031 22.066406 -8.53125 24.421875 -8.53125 C 27.054688 -8.53125 29.394531 -9.210938 31.4375 -10.578125 C 33.476562 -11.941406 34.992188 -13.734375 35.984375 -15.953125 L 24.34375 -15.953125 Z M 24.34375 -23.21875 "/></g></g></g><g fill="#000000" fill-opacity="1"><g transform="translate(239.70126, 318.636926)"><g><path d="M 29.984375 -34.15625 L 13.828125 -34.15625 L 13.828125 -25.265625 L 27.65625 -25.265625 L 27.65625 -17.078125 L 13.828125 -17.078125 L 13.828125 -8.1875 L 29.984375 -8.1875 L 29.984375 0 L 4.515625 0 L 4.515625 -42.34375 L 29.984375 -42.34375 Z M 29.984375 -34.15625 "/></g></g></g><g fill="#000000" fill-opacity="1"><g transform="translate(284.263287, 318.636926)"><g><path d="M 34.578125 -42.34375 L 43.828125 -42.34375 L 43.828125 0 L 34.21875 0 L 13.484375 -28.078125 L 13.484375 0 L 4.15625 0 L 4.15625 -42.34375 L 13.765625 -42.34375 L 34.578125 -14.328125 Z M 34.578125 -42.34375 "/></g></g></g></svg>